<svg xmlns="http://www.w3.org/2000/svg" width="19" height="19.003" viewBox="0 0 19 19.003">
    <g id="구성_요소_121_67" data-name="구성 요소 121 – 67">
        <g id="구성_요소_27_1" data-name="구성 요소 27 – 1">
            <path id="패스_58" fill="#fff" d="M10.913 9.5L18.7 1.71A1 1 0 0 0 17.295.3L9.5 8.09 1.71.29A1 1 0 0 0 .3 1.7l7.792 7.8L.3 17.29a1 1 0 0 0 0 1.41.954.954 0 0 0 .7.3 1.025 1.025 0 0 0 .71-.29l7.79-7.79 7.792 7.79a1.015 1.015 0 0 0 1.42 0 1 1 0 0 0 0-1.41z" data-name="패스 58" transform="translate(-.008 .003)"/>
        </g>
    </g>
</svg>
